<svg width="89" height="46" viewBox="0 0 89 46" fill="none" xmlns="http://www.w3.org/2000/svg">
<path d="M80.1671 5.83696C74.7197 4.49813 69.2188 3.46544 63.6879 2.79603C58.9523 2.22049 54.1933 1.91436 49.431 1.9062C45.5009 1.90212 41.5707 2.10213 37.6573 2.53888C34.5292 2.88583 31.4111 3.37565 28.3165 4.02465C26.8961 4.32262 25.4858 4.64917 24.0855 5.05735C21.6225 5.77166 19.1829 6.62884 16.79 7.63704C13.702 8.93505 10.6475 10.478 7.83352 12.5148C5.31034 14.3393 2.77713 16.6619 1.32671 19.8498C0.344172 21.9968 -0.120361 24.5724 0.0266862 27.0296C0.160365 29.2542 1.02594 31.3482 2.22905 33.0013C3.76301 35.1157 5.77822 36.7443 7.81014 38.0545C9.84205 39.3648 12.1346 40.4628 14.3972 41.3241C19.624 43.3078 25.0948 44.4099 30.5322 45.0793C36.2102 45.7814 41.9216 45.9406 47.6264 45.8099C52.6527 45.6957 57.6957 45.4467 62.692 44.6956C67.6314 43.9527 72.5742 42.7363 77.1928 40.4179C81.0995 38.4545 84.9896 35.6504 87.4259 31.3114C88.5588 29.295 89.2539 26.8868 88.9197 24.4254C88.5855 21.9641 87.2655 19.9191 85.9487 18.1885C83.1381 14.4863 79.3951 11.9841 75.6254 10.0453C71.8556 8.10644 68.0658 6.75536 64.1858 5.51858C59.2263 3.93893 54.1933 2.74296 49.1169 1.88579C44.1474 1.04902 39.1511 0.469409 34.1415 0.19593C32.1263 0.0775585 30.1078 0.0163319 28.0892 5.13688e-06C27.4342 -0.00407654 27.4342 1.23679 28.0892 1.24087C32.661 1.2776 37.2295 1.55517 41.7846 2.07763C46.3397 2.6001 51.0786 3.37156 55.6738 4.44099C60.2189 5.49817 64.7272 6.84924 69.1486 8.51462C73.0153 9.97181 76.8519 11.7392 80.3275 14.3108C82.0052 15.5516 83.5926 16.9925 84.9595 18.715C86.2562 20.3477 87.6097 22.3845 87.9305 24.6867C88.2513 26.9888 87.3925 29.3236 86.2662 31.1645C85.0531 33.1441 83.4556 34.7932 81.7746 36.1524C77.9347 39.2587 73.3696 41.0138 68.9013 42.1894C64.1156 43.4466 59.2263 44.0017 54.3437 44.2956C49.0601 44.6181 43.7564 44.7242 38.466 44.4874C32.8883 44.2385 27.3139 43.5895 21.8297 42.2751C17.0874 41.1363 12.2917 39.6179 8.02068 36.781C6.02552 35.4544 3.96019 33.7932 2.56658 31.5604C1.5406 29.9155 1.00923 28.0419 1.02259 26.1153C1.03596 23.805 1.59407 21.507 2.65347 19.5885C3.42881 18.1885 4.44143 16.9925 5.51754 15.9394C7.9672 13.5393 10.8647 11.7964 13.7588 10.3514C16.4257 9.02077 19.1762 7.92685 21.9567 7.00436C23.3436 6.54312 24.7405 6.11453 26.1475 5.77166C28.5638 5.18388 31.0067 4.71447 33.4531 4.33895C36.922 3.80423 40.411 3.45728 43.9034 3.28584C48.1611 3.07359 52.4254 3.11849 56.6797 3.39197C61.7462 3.71443 66.7959 4.35935 71.8088 5.29C74.5158 5.79206 77.2161 6.37984 79.8998 7.04109C80.5381 7.19619 80.8121 6.00023 80.1704 5.84512L80.1671 5.83696Z" fill="white"/>
</svg>
