<svg width="320" height="48" viewBox="0 0 320 48" fill="none" xmlns="http://www.w3.org/2000/svg">
<path d="M2.61715 47.9806C44.0252 40.1077 85.3503 31.5124 126.719 23.2651C147.096 19.2006 167.571 16.5544 188.129 14.7946C208.584 13.048 229.083 12.3323 249.529 10.4215C272.321 8.29403 295.108 4.97806 317.987 5.72005C320.671 5.80541 320.671 0.197806 317.987 0.105878C297.474 -0.557316 277.028 2.0298 256.597 4.11131C236.186 6.19282 215.716 6.9939 195.281 8.58951C174.869 10.1851 154.477 12.3914 134.217 16.1604C113.362 20.0411 92.5557 24.493 71.7346 28.6955C48.3377 33.4166 24.9359 38.1049 1.50975 42.5569C-1.13435 43.0625 -0.0123181 48.4665 2.61715 47.9675V47.9806Z" fill="#873FFA"/>
<path d="M165.031 41.1481C203.704 38.7581 242.378 36.4444 281.066 34.5883C283.702 34.4612 283.716 29.0266 281.066 29.1537C242.378 31.0097 203.699 33.3234 165.031 35.7134C162.395 35.8787 162.38 41.307 165.031 41.1481Z" fill="#873FFA"/>
</svg>
