<svg width="25" height="25" viewBox="0 0 25 25" fill="none" xmlns="http://www.w3.org/2000/svg">
<path d="M0.840491 2.44606C1.72335 2.5697 2.60621 2.47996 3.49486 2.51785C3.69771 2.52582 3.90248 2.53181 4.10146 2.56571C4.25794 2.59363 4.54579 2.59761 4.43761 2.62553C4.12078 2.70729 4.35067 2.1589 4.2676 2.66542C4.21931 2.96055 4.25988 3.30156 4.24056 3.60268C4.03385 6.68567 4.17294 9.81851 4.49556 12.8935C4.64818 14.3373 4.67909 17.2348 6.54526 17.508C8.55632 17.8032 10.6794 17.6436 12.6982 17.5858C14.5238 17.534 16.3456 17.6556 18.1673 17.6775C19.3477 17.6935 20.4353 17.3146 20.9936 16.168C21.2602 15.6196 21.4244 14.9974 21.6079 14.4171C22.1701 12.6443 22.6898 10.8575 23.1959 9.06671C23.4065 8.32089 23.6171 7.57706 23.8083 6.82526C23.9223 6.38056 24.1 5.86407 23.9783 5.40541C23.6905 4.31659 22.3652 4.0055 21.4379 3.95565C19.7939 3.8679 18.1287 4.12515 16.4808 4.12515C13.0827 4.12316 9.6768 4.11119 6.28253 3.91377C4.80273 3.82802 4.80852 6.20308 6.28253 6.28883C10.1656 6.51417 14.1278 6.62584 18.0147 6.47229C18.8975 6.43839 19.7785 6.35862 20.6613 6.33071C20.7231 6.32871 22.06 6.3666 22.0078 6.46232C21.9788 6.51417 21.7238 5.76037 21.7219 5.75439C21.5191 5.3396 21.8127 5.47321 21.7412 5.56893C21.6929 5.63274 21.6775 5.84612 21.6601 5.92389C21.5654 6.32073 21.4572 6.71159 21.3491 7.10444C20.7309 9.36982 20.0779 11.6272 19.365 13.8627C19.2549 14.2077 19.1371 14.5487 19.025 14.8937C18.9999 14.9675 18.9729 15.0413 18.9458 15.115C18.9111 15.2048 19.1429 14.9415 18.9555 15.0871C18.6812 15.3005 18.5691 15.3065 18.1673 15.3005C16.8594 15.2845 15.5477 15.2247 14.2379 15.1988C11.6647 15.1449 9.09338 15.3922 6.52401 15.129L7.33732 15.476C7.12868 15.2766 7.31221 15.4999 7.25232 15.3763C7.21948 15.3085 7.14027 15.0512 7.08231 14.794C6.82345 13.6653 6.74231 12.4867 6.65924 11.3341C6.49696 9.07668 6.26707 6.69763 6.46798 4.43824C6.59549 2.99645 6.86015 1.09201 5.26251 0.43992C4.64045 0.188654 3.93919 0.152759 3.27656 0.136805C2.88826 0.126835 2.49995 0.136805 2.11165 0.142788C1.96097 0.142788 1.81028 0.148771 1.6596 0.146776C1.6113 0.146776 1.20175 0.122846 1.45096 0.158741C0.830832 0.0690036 0.22423 0.312293 0.0368397 0.986323C-0.117709 1.53871 0.226162 2.36031 0.840491 2.44606Z" fill="white"/>
<path d="M17.4764 19.9197C16.383 20.3165 15.6798 21.4093 15.9522 22.6178C16.2246 23.8263 17.3528 24.4764 18.4868 24.2391C19.4894 24.0297 20.1385 23.0386 20.0612 22.0056C19.9704 20.8171 19.1146 19.9316 17.9555 19.8778C17.3354 19.8499 16.8061 20.4441 16.8061 21.0643C16.8061 21.7304 17.3335 22.2229 17.9555 22.2509C18.0869 22.2588 18.0618 22.2549 17.8782 22.2369C17.998 22.2748 17.9729 22.2608 17.8029 22.193C17.9072 22.2588 17.886 22.2349 17.7391 22.1232C17.7739 22.1532 17.8048 22.1851 17.8338 22.219C17.7256 22.0654 17.7063 22.0415 17.772 22.1452C17.828 22.2568 17.8183 22.2249 17.7411 22.0495C17.7353 22.0495 17.8106 22.2309 17.7932 22.2509C17.772 22.0495 17.7643 22.0136 17.772 22.1412C17.772 22.1871 17.772 22.2329 17.7662 22.2768C17.7971 22.0734 17.7971 22.0355 17.77 22.1591C17.7314 22.2768 17.7449 22.2449 17.8126 22.0594C17.7488 22.1631 17.7739 22.1372 17.884 21.9817C17.799 22.0674 17.828 22.0495 17.971 21.9278C17.799 22.0395 18.2318 21.868 17.9555 21.9338C17.8705 21.9517 17.9072 21.9478 18.0637 21.9158C17.9285 21.9099 17.9439 21.9178 18.112 21.9378C18.0598 21.9278 18.0096 21.9139 17.9613 21.8959C18.1197 21.9697 18.1468 21.9757 18.0405 21.9139C18.1777 22.0295 18.2028 22.0455 18.1159 21.9597C18.2202 22.1113 18.2414 22.1332 18.1757 22.0295C18.0637 21.8381 18.2491 22.2947 18.1835 22.0175C18.1757 21.9876 18.1699 22.2868 18.2028 22.0136C18.1719 22.209 18.1699 22.2449 18.197 22.1173C18.2356 21.9976 18.2221 22.0235 18.1564 22.197C18.3477 21.9318 18.0676 22.3107 18.1912 22.1412C18.054 22.2429 18.0366 22.2568 18.1429 22.1871C18.253 22.1292 18.2376 22.1352 18.0946 22.205C18.68 21.9916 19.0702 21.3934 18.8983 20.7453C18.7418 20.159 18.0714 19.7023 17.4841 19.9157L17.4764 19.9197Z" fill="white"/>
<path d="M6.37293 22.5323C6.64339 23.5972 7.61511 24.339 8.68536 24.2393C9.9005 24.1257 10.7505 23.0289 10.6037 21.7765C10.4743 20.6797 9.54697 19.918 8.48445 19.9479C7.95705 19.9618 7.44511 20.1593 7.04715 20.5182C6.59316 20.925 6.42123 21.4435 6.34589 22.0418C6.26668 22.6779 6.93124 23.2283 7.49534 23.2283C8.18308 23.2283 8.56559 22.6799 8.64479 22.0418C8.61775 22.2232 8.61968 22.2511 8.65059 22.1255C8.57525 22.293 8.56752 22.3209 8.62547 22.2113C8.50956 22.3548 8.49218 22.3788 8.57138 22.287C8.66025 22.2033 8.63513 22.2232 8.49411 22.3429C8.53081 22.317 8.56945 22.295 8.61002 22.2751C8.43615 22.3469 8.40718 22.3608 8.52309 22.3229C8.74718 22.2611 8.26615 22.3289 8.48252 22.3229C8.79548 22.315 8.32604 22.2571 8.5057 22.315C8.67377 22.3688 8.29706 22.1375 8.52695 22.3269C8.38206 22.2033 8.35308 22.1833 8.44195 22.2671C8.33376 22.1096 8.31251 22.0836 8.3782 22.1873C8.31251 22.0079 8.30092 21.9779 8.33956 22.1016C8.35888 22.2013 8.36081 22.1993 8.34149 22.0976C8.32797 21.9899 8.32411 21.9939 8.32604 22.1056C8.35308 21.942 8.35308 21.9241 8.32604 22.0517C8.28547 22.1774 8.29513 22.1554 8.35502 21.9879C8.28933 22.0956 8.30672 22.0757 8.40911 21.9261C8.26035 22.0537 8.64479 21.8084 8.36467 21.946C8.53661 21.8762 8.56366 21.8583 8.44581 21.8942C8.62741 21.8762 8.67377 21.8703 8.58297 21.8762C8.5115 21.8623 8.2024 21.8603 8.57911 21.8942C8.53275 21.8842 8.48831 21.8703 8.44581 21.8543C8.61002 21.9321 8.639 21.9401 8.53081 21.8802C8.43036 21.8104 8.45161 21.8284 8.59263 21.9321C8.50956 21.8403 8.52309 21.8623 8.62934 21.9979C8.60036 21.954 8.57525 21.9081 8.554 21.8603C8.61582 22.0178 8.62934 22.0318 8.5907 21.9022C8.43422 21.282 7.76966 20.9051 7.17658 21.0726C6.5835 21.2401 6.21645 21.9101 6.37293 22.5323Z" fill="white"/>
</svg>
