<svg width="192" height="32" viewBox="0 0 192 32" fill="none" xmlns="http://www.w3.org/2000/svg">
<path d="M31.8002 17.7118C31.7943 17.8581 31.7845 17.9983 31.7687 18.1405C31.6212 19.6388 31.1589 21.0072 30.5037 22.2685C31.0861 20.8341 31.5523 19.2822 31.8002 17.7118Z" fill="#D6D5D5"/>
<path d="M31.5249 11.9142C31.456 11.2856 31.3222 10.6653 31.1039 10.0532C29.5241 5.63046 24.0688 1.14382 19.6778 0.230832C16.8862 -0.35035 13.6992 0.288538 10.9253 0.799647C8.3698 1.27366 6.253 2.48136 4.41358 4.39802C0.801625 8.16128 -0.50269 13.3713 0.170124 18.5174C0.164222 18.5236 0.170124 18.5236 0.170124 18.5277C0.207503 19.1769 0.305867 19.8096 0.455382 20.4197C0.789822 21.8046 1.47051 23.0185 2.25546 24.1602C2.87122 25.2216 3.65223 26.2006 4.52375 27.0538C5.34017 27.9606 6.22939 28.8035 7.215 29.4898C10.1423 31.5445 13.7228 32.1752 17.1833 31.9588C18.8633 31.8475 20.5395 31.6064 22.1015 30.9057C22.3376 30.8006 22.5619 30.681 22.7861 30.5574C24.8813 29.7577 26.7561 28.1791 28.1903 26.485C28.3752 26.2665 28.5149 26.0357 28.6211 25.8069C28.9969 25.302 29.351 24.7435 29.6717 24.1067C29.9668 23.5214 30.2481 22.9072 30.5038 22.2704C31.0861 20.8339 31.5523 19.2843 31.8002 17.7118C32.113 15.7539 32.0875 13.7588 31.5249 11.9142ZM17.9564 9.03099C18.0705 8.23135 18.2732 6.22194 19.5972 6.4878C19.9631 6.55994 20.2641 6.79076 20.2641 7.16379C20.3152 7.21325 20.3585 7.27508 20.3919 7.34721C20.9093 8.48484 20.9231 9.82444 20.9369 11.0404C20.9428 11.6195 20.8975 12.1883 20.7697 12.7551C20.6556 13.2621 20.5041 13.802 20.0516 14.1359C19.5185 14.5295 18.7768 14.3441 18.4601 13.7958C18.2102 13.3651 18.1217 12.8004 18.0332 12.3223C17.8305 11.2403 17.799 10.1171 17.9564 9.03099ZM11.0276 10.0553C11.0729 8.75482 11.0375 7.16791 12.3831 6.44865C12.8139 6.21782 13.2723 6.36003 13.469 6.80725C13.713 7.3637 13.7346 8.02732 13.7936 8.62292C13.8074 8.75894 13.8192 8.89703 13.829 9.03305C13.894 9.12991 13.9353 9.25357 13.9353 9.40401C13.9372 11.0919 13.8586 12.9179 12.5956 14.208C12.2906 14.5192 11.7024 14.5398 11.4565 14.1318C10.6774 12.8416 10.9765 11.4691 11.0276 10.0553ZM26.9804 20.3888C26.6597 20.2589 26.3391 20.1353 26.0164 20.0137C24.9069 24.3148 21.1336 27.5402 16.8784 27.773C14.2973 27.9153 11.7673 27.3712 9.73314 25.6524C8.0334 24.218 6.06807 22.4456 5.46805 20.1559C5.26345 20.2239 5.05885 20.2939 4.85622 20.3661C3.95126 20.6917 3.56961 19.1914 4.46669 18.8698C5.5251 18.4886 6.60121 18.1712 7.69502 17.9156C8.62555 17.6972 9.01508 19.1955 8.08455 19.4119C7.68519 19.5046 7.28976 19.6097 6.89433 19.7189C7.4137 21.6583 9.16066 23.1566 10.585 24.389C12.3752 25.9388 14.6042 26.3448 16.8823 26.2232C20.5178 26.0274 23.7029 23.1607 24.6138 19.5067C24.3324 19.4119 24.0511 19.3171 23.7698 19.2264C22.8589 18.9337 23.2524 17.4375 24.1672 17.7302C25.2492 18.0785 26.3194 18.4659 27.3778 18.8946C28.2591 19.2511 27.8696 20.7494 26.9804 20.3888Z" fill="#D6D5D5"/>
<path d="M71.8008 17.7118C71.7949 17.8581 71.7851 17.9983 71.7694 18.1405C71.6218 19.6388 71.1595 21.0072 70.5044 22.2685C71.0867 20.8341 71.553 19.2822 71.8008 17.7118Z" fill="#D6D5D5"/>
<path d="M71.5255 11.9142C71.4566 11.2856 71.3229 10.6653 71.1045 10.0532C69.5248 5.63046 64.0694 1.14382 59.6784 0.230832C56.8869 -0.35035 53.6998 0.288538 50.926 0.799647C48.3704 1.27366 46.2536 2.48136 44.4142 4.39802C40.8023 8.16128 39.498 13.3713 40.1708 18.5174C40.1649 18.5236 40.1708 18.5236 40.1708 18.5277C40.2081 19.1769 40.3065 19.8096 40.456 20.4197C40.7905 21.8046 41.4711 23.0185 42.2561 24.1602C42.8719 25.2216 43.6529 26.2006 44.5244 27.0538C45.3408 27.9606 46.23 28.8035 47.2156 29.4898C50.143 31.5445 53.7235 32.1752 57.1839 31.9588C58.864 31.8475 60.5401 31.6064 62.1022 30.9057C62.3382 30.8006 62.5625 30.681 62.7868 30.5574C64.8819 29.7577 66.7568 28.1791 68.1909 26.485C68.3759 26.2665 68.5155 26.0357 68.6218 25.8069C68.9975 25.302 69.3516 24.7435 69.6723 24.1067C69.9674 23.5214 70.2487 22.9072 70.5045 22.2704C71.0868 20.8339 71.553 19.2843 71.8008 17.7118C72.1136 15.7539 72.0881 13.7588 71.5255 11.9142ZM57.9571 9.03099C58.0712 8.23135 58.2738 6.22194 59.5978 6.4878C59.9637 6.55994 60.2647 6.79076 60.2647 7.16379C60.3159 7.21325 60.3591 7.27508 60.3926 7.34721C60.91 8.48484 60.9237 9.82444 60.9375 11.0404C60.9434 11.6195 60.8982 12.1883 60.7703 12.7551C60.6562 13.2621 60.5047 13.802 60.0522 14.1359C59.5191 14.5295 58.7774 14.3441 58.4607 13.7958C58.2109 13.3651 58.1223 12.8004 58.0338 12.3223C57.8312 11.2403 57.7997 10.1171 57.9571 9.03099ZM51.0283 10.0553C51.0735 8.75482 51.0381 7.16791 52.3837 6.44865C52.8146 6.21782 53.2729 6.36003 53.4697 6.80725C53.7136 7.3637 53.7353 8.02732 53.7943 8.62292C53.808 8.75894 53.8198 8.89703 53.8297 9.03305C53.8946 9.12991 53.9359 9.25357 53.9359 9.40401C53.9379 11.0919 53.8592 12.9179 52.5962 14.208C52.2913 14.5192 51.703 14.5398 51.4571 14.1318C50.6781 12.8416 50.9771 11.4691 51.0283 10.0553ZM66.981 20.3888C66.6604 20.2589 66.3397 20.1353 66.0171 20.0137C64.9075 24.3148 61.1342 27.5402 56.879 27.773C54.2979 27.9153 51.768 27.3712 49.7338 25.6524C48.034 24.218 46.0687 22.4456 45.4687 20.1559C45.2641 20.2239 45.0595 20.2939 44.8569 20.3661C43.9519 20.6917 43.5702 19.1914 44.4673 18.8698C45.5257 18.4886 46.6018 18.1712 47.6957 17.9156C48.6262 17.6972 49.0157 19.1955 48.0852 19.4119C47.6858 19.5046 47.2904 19.6097 46.895 19.7189C47.4143 21.6583 49.1613 23.1566 50.5856 24.389C52.3759 25.9388 54.6048 26.3448 56.8829 26.2232C60.5185 26.0274 63.7035 23.1607 64.6144 19.5067C64.3331 19.4119 64.0517 19.3171 63.7704 19.2264C62.8596 18.9337 63.253 17.4375 64.1678 17.7302C65.2498 18.0785 66.32 18.4659 67.3784 18.8946C68.2598 19.2511 67.8703 20.7494 66.981 20.3888Z" fill="#D6D5D5"/>
<path d="M111.801 17.7118C111.796 17.8581 111.786 17.9983 111.77 18.1405C111.622 19.6388 111.16 21.0072 110.505 22.2685C111.087 20.8341 111.554 19.2822 111.801 17.7118Z" fill="#D6D5D5"/>
<path d="M111.526 11.9142C111.457 11.2856 111.324 10.6653 111.105 10.0532C109.525 5.63046 104.07 1.14382 99.6791 0.230832C96.8875 -0.35035 93.7005 0.288538 90.9266 0.799647C88.3711 1.27366 86.2543 2.48136 84.4149 4.39802C80.8029 8.16128 79.4986 13.3713 80.1714 18.5174C80.1655 18.5236 80.1714 18.5236 80.1714 18.5277C80.2088 19.1769 80.3071 19.8096 80.4567 20.4197C80.7911 21.8046 81.4718 23.0185 82.2567 24.1602C82.8725 25.2216 83.6535 26.2006 84.525 27.0538C85.3415 27.9606 86.2307 28.8035 87.2163 29.4898C90.1436 31.5445 93.7241 32.1752 97.1846 31.9588C98.8646 31.8475 100.541 31.6064 102.103 30.9057C102.339 30.8006 102.563 30.681 102.787 30.5574C104.883 29.7577 106.757 28.1791 108.192 26.485C108.376 26.2665 108.516 26.0357 108.622 25.8069C108.998 25.302 109.352 24.7435 109.673 24.1067C109.968 23.5214 110.249 22.9072 110.505 22.2704C111.087 20.8339 111.554 19.2843 111.801 17.7118C112.114 15.7539 112.089 13.7588 111.526 11.9142ZM97.9577 9.03099C98.0718 8.23135 98.2744 6.22194 99.5984 6.4878C99.9643 6.55994 100.265 6.79076 100.265 7.16379C100.316 7.21325 100.36 7.27508 100.393 7.34721C100.911 8.48484 100.924 9.82444 100.938 11.0404C100.944 11.6195 100.899 12.1883 100.771 12.7551C100.657 13.2621 100.505 13.802 100.053 14.1359C99.5197 14.5295 98.7781 14.3441 98.4613 13.7958C98.2115 13.3651 98.123 12.8004 98.0344 12.3223C97.8318 11.2403 97.8003 10.1171 97.9577 9.03099ZM91.0289 10.0553C91.0741 8.75482 91.0387 7.16791 92.3844 6.44865C92.8152 6.21782 93.2736 6.36003 93.4703 6.80725C93.7143 7.3637 93.7359 8.02732 93.7949 8.62292C93.8087 8.75894 93.8205 8.89703 93.8303 9.03305C93.8952 9.12991 93.9366 9.25357 93.9366 9.40401C93.9385 11.0919 93.8598 12.9179 92.5968 14.208C92.2919 14.5192 91.7037 14.5398 91.4578 14.1318C90.6787 12.8416 90.9778 11.4691 91.0289 10.0553ZM106.982 20.3888C106.661 20.2589 106.34 20.1353 106.018 20.0137C104.908 24.3148 101.135 27.5402 96.8796 27.773C94.2985 27.9153 91.7686 27.3712 89.7344 25.6524C88.0347 24.218 86.0694 22.4456 85.4693 20.1559C85.2647 20.2239 85.0601 20.2939 84.8575 20.3661C83.9525 20.6917 83.5709 19.1914 84.468 18.8698C85.5264 18.4886 86.6025 18.1712 87.6963 17.9156C88.6268 17.6972 89.0164 19.1955 88.0858 19.4119C87.6865 19.5046 87.291 19.6097 86.8956 19.7189C87.415 21.6583 89.1619 23.1566 90.5863 24.389C92.3765 25.9388 94.6054 26.3448 96.8836 26.2232C100.519 26.0274 103.704 23.1607 104.615 19.5067C104.334 19.4119 104.052 19.3171 103.771 19.2264C102.86 18.9337 103.254 17.4375 104.168 17.7302C105.25 18.0785 106.321 18.4659 107.379 18.8946C108.26 19.2511 107.871 20.7494 106.982 20.3888Z" fill="#D6D5D5"/>
<path d="M151.802 17.7118C151.796 17.8581 151.786 17.9983 151.771 18.1405C151.623 19.6388 151.161 21.0072 150.506 22.2685C151.088 20.8341 151.554 19.2822 151.802 17.7118Z" fill="#D6D5D5"/>
<path d="M151.527 11.9142C151.458 11.2856 151.324 10.6653 151.106 10.0532C149.526 5.63046 144.071 1.14382 139.68 0.230832C136.888 -0.35035 133.701 0.288538 130.927 0.799647C128.372 1.27366 126.255 2.48136 124.415 4.39802C120.804 8.16128 119.499 13.3713 120.172 18.5174C120.166 18.5236 120.172 18.5236 120.172 18.5277C120.209 19.1769 120.308 19.8096 120.457 20.4197C120.792 21.8046 121.472 23.0185 122.257 24.1602C122.873 25.2216 123.654 26.2006 124.526 27.0538C125.342 27.9606 126.231 28.8035 127.217 29.4898C130.144 31.5445 133.725 32.1752 137.185 31.9588C138.865 31.8475 140.541 31.6064 142.103 30.9057C142.339 30.8006 142.564 30.681 142.788 30.5574C144.883 29.7577 146.758 28.1791 148.192 26.485C148.377 26.2665 148.517 26.0357 148.623 25.8069C148.999 25.302 149.353 24.7435 149.674 24.1067C149.969 23.5214 150.25 22.9072 150.506 22.2704C151.088 20.8339 151.554 19.2843 151.802 17.7118C152.115 15.7539 152.089 13.7588 151.527 11.9142ZM137.958 9.03099C138.072 8.23135 138.275 6.22194 139.599 6.4878C139.965 6.55994 140.266 6.79076 140.266 7.16379C140.317 7.21325 140.36 7.27508 140.394 7.34721C140.911 8.48484 140.925 9.82444 140.939 11.0404C140.945 11.6195 140.899 12.1883 140.772 12.7551C140.657 13.2621 140.506 13.802 140.053 14.1359C139.52 14.5295 138.779 14.3441 138.462 13.7958C138.212 13.3651 138.124 12.8004 138.035 12.3223C137.832 11.2403 137.801 10.1171 137.958 9.03099ZM131.03 10.0553C131.075 8.75482 131.039 7.16791 132.385 6.44865C132.816 6.21782 133.274 6.36003 133.471 6.80725C133.715 7.3637 133.737 8.02732 133.796 8.62292C133.809 8.75894 133.821 8.89703 133.831 9.03305C133.896 9.12991 133.937 9.25357 133.937 9.40401C133.939 11.0919 133.86 12.9179 132.597 14.208C132.293 14.5192 131.704 14.5398 131.458 14.1318C130.679 12.8416 130.978 11.4691 131.03 10.0553ZM146.982 20.3888C146.662 20.2589 146.341 20.1353 146.018 20.0137C144.909 24.3148 141.135 27.5402 136.88 27.773C134.299 27.9153 131.769 27.3712 129.735 25.6524C128.035 24.218 126.07 22.4456 125.47 20.1559C125.265 20.2239 125.061 20.2939 124.858 20.3661C123.953 20.6917 123.572 19.1914 124.469 18.8698C125.527 18.4886 126.603 18.1712 127.697 17.9156C128.627 17.6972 129.017 19.1955 128.086 19.4119C127.687 19.5046 127.292 19.6097 126.896 19.7189C127.416 21.6583 129.163 23.1566 130.587 24.389C132.377 25.9388 134.606 26.3448 136.884 26.2232C140.52 26.0274 143.705 23.1607 144.616 19.5067C144.334 19.4119 144.053 19.3171 143.772 19.2264C142.861 18.9337 143.254 17.4375 144.169 17.7302C145.251 18.0785 146.321 18.4659 147.38 18.8946C148.261 19.2511 147.872 20.7494 146.982 20.3888Z" fill="#D6D5D5"/>
<path d="M191.803 17.7118C191.797 17.8581 191.787 17.9983 191.771 18.1405C191.624 19.6388 191.161 21.0072 190.506 22.2685C191.089 20.8341 191.555 19.2822 191.803 17.7118Z" fill="#D6D5D5"/>
<path d="M191.527 11.9142C191.459 11.2856 191.325 10.6653 191.106 10.0532C189.527 5.63046 184.071 1.14382 179.68 0.230832C176.889 -0.35035 173.702 0.288538 170.928 0.799647C168.372 1.27366 166.256 2.48136 164.416 4.39802C160.804 8.16128 159.5 13.3713 160.173 18.5174C160.167 18.5236 160.173 18.5236 160.173 18.5277C160.21 19.1769 160.308 19.8096 160.458 20.4197C160.792 21.8046 161.473 23.0185 162.258 24.1602C162.874 25.2216 163.655 26.2006 164.526 27.0538C165.343 27.9606 166.232 28.8035 167.218 29.4898C170.145 31.5445 173.725 32.1752 177.186 31.9588C178.866 31.8475 180.542 31.6064 182.104 30.9057C182.34 30.8006 182.564 30.681 182.789 30.5574C184.884 29.7577 186.759 28.1791 188.193 26.485C188.378 26.2665 188.517 26.0357 188.624 25.8069C188.999 25.302 189.354 24.7435 189.674 24.1067C189.969 23.5214 190.251 22.9072 190.506 22.2704C191.089 20.8339 191.555 19.2843 191.803 17.7118C192.116 15.7539 192.09 13.7588 191.527 11.9142ZM177.959 9.03099C178.073 8.23135 178.276 6.22194 179.6 6.4878C179.966 6.55994 180.267 6.79076 180.267 7.16379C180.318 7.21325 180.361 7.27508 180.395 7.34721C180.912 8.48484 180.926 9.82444 180.939 11.0404C180.945 11.6195 180.9 12.1883 180.772 12.7551C180.658 13.2621 180.507 13.802 180.054 14.1359C179.521 14.5295 178.779 14.3441 178.463 13.7958C178.213 13.3651 178.124 12.8004 178.036 12.3223C177.833 11.2403 177.802 10.1171 177.959 9.03099ZM171.03 10.0553C171.075 8.75482 171.04 7.16791 172.386 6.44865C172.816 6.21782 173.275 6.36003 173.472 6.80725C173.716 7.3637 173.737 8.02732 173.796 8.62292C173.81 8.75894 173.822 8.89703 173.832 9.03305C173.897 9.12991 173.938 9.25357 173.938 9.40401C173.94 11.0919 173.861 12.9179 172.598 14.208C172.293 14.5192 171.705 14.5398 171.459 14.1318C170.68 12.8416 170.979 11.4691 171.03 10.0553ZM186.983 20.3888C186.662 20.2589 186.342 20.1353 186.019 20.0137C184.909 24.3148 181.136 27.5402 176.881 27.773C174.3 27.9153 171.77 27.3712 169.736 25.6524C168.036 24.218 166.071 22.4456 165.471 20.1559C165.266 20.2239 165.061 20.2939 164.859 20.3661C163.954 20.6917 163.572 19.1914 164.469 18.8698C165.528 18.4886 166.604 18.1712 167.698 17.9156C168.628 17.6972 169.018 19.1955 168.087 19.4119C167.688 19.5046 167.292 19.6097 166.897 19.7189C167.416 21.6583 169.163 23.1566 170.588 24.389C172.378 25.9388 174.607 26.3448 176.885 26.2232C180.52 26.0274 183.705 23.1607 184.616 19.5067C184.335 19.4119 184.054 19.3171 183.772 19.2264C182.861 18.9337 183.255 17.4375 184.17 17.7302C185.252 18.0785 186.322 18.4659 187.38 18.8946C188.262 19.2511 187.872 20.7494 186.983 20.3888Z" fill="#D6D5D5"/>
</svg>
