<svg width="33" height="32" viewBox="0 0 33 32" fill="none" xmlns="http://www.w3.org/2000/svg">
<path d="M32.5201 17.7121C32.5142 17.8584 32.5044 17.9985 32.4886 18.1407C32.3411 19.639 31.8788 21.0075 31.2237 22.2688C31.806 20.8344 32.2722 19.2825 32.5201 17.7121Z" fill="#FF9EBA"/>
<path d="M32.2448 11.9145C32.1759 11.2859 32.0421 10.6655 31.8238 10.0534C30.244 5.6307 24.7887 1.14407 20.3977 0.231076C17.6061 -0.350105 14.4191 0.288782 11.6452 0.799891C9.08973 1.2739 6.97292 2.48161 5.1335 4.39827C1.52155 8.16152 0.217234 13.3715 0.890049 18.5177C0.884147 18.5239 0.890049 18.5239 0.890049 18.528C0.927428 19.1772 1.02579 19.8099 1.17531 20.4199C1.50975 21.8049 2.19043 23.0187 2.97538 24.1605C3.59114 25.2219 4.37216 26.2008 5.24367 27.054C6.0601 27.9608 6.94931 28.8038 7.93493 29.49C10.8623 31.5448 14.4427 32.1754 17.9032 31.959C19.5833 31.8477 21.2594 31.6066 22.8214 30.9059C23.0575 30.8008 23.2818 30.6813 23.5061 30.5576C25.6012 29.758 27.4761 28.1793 28.9102 26.4852C29.0951 26.2668 29.2348 26.0359 29.3411 25.8072C29.7168 25.3022 30.0709 24.7437 30.3916 24.1069C30.6867 23.5216 30.968 22.9074 31.2238 22.2706C31.8061 20.8342 32.2722 19.2845 32.5201 17.7121C32.8329 15.7542 32.8074 13.759 32.2448 11.9145ZM18.6764 9.03123C18.7905 8.23159 18.9931 6.22219 20.3171 6.48805C20.683 6.56018 20.984 6.791 20.984 7.16403C21.0351 7.21349 21.0784 7.27532 21.1119 7.34745C21.6293 8.48509 21.643 9.82469 21.6568 11.0406C21.6627 11.6198 21.6175 12.1886 21.4896 12.7553C21.3755 13.2623 21.224 13.8023 20.7715 14.1361C20.2384 14.5298 19.4967 14.3443 19.18 13.7961C18.9301 13.3654 18.8416 12.8007 18.7531 12.3225C18.5504 11.2405 18.519 10.1173 18.6764 9.03123ZM11.7475 10.0555C11.7928 8.75507 11.7574 7.16815 13.103 6.44889C13.5338 6.21807 13.9922 6.36027 14.189 6.80749C14.4329 7.36394 14.4545 8.02756 14.5136 8.62317C14.5273 8.75919 14.5391 8.89727 14.549 9.03329C14.6139 9.13016 14.6552 9.25381 14.6552 9.40426C14.6572 11.0922 14.5785 12.9181 13.3155 14.2083C13.0105 14.5195 12.4223 14.5401 12.1764 14.132C11.3974 12.8419 11.6964 11.4693 11.7475 10.0555ZM27.7003 20.389C27.3797 20.2592 27.059 20.1355 26.7364 20.0139C25.6268 24.3151 21.8535 27.5404 17.5983 27.7733C15.0172 27.9155 12.4872 27.3714 10.4531 25.6526C8.75332 24.2182 6.788 22.4458 6.18797 20.1561C5.98337 20.2241 5.77877 20.2942 5.57614 20.3663C4.67119 20.6919 4.28953 19.1916 5.18662 18.8701C6.24502 18.4888 7.32113 18.1714 8.41495 17.9159C9.34548 17.6974 9.735 19.1957 8.80447 19.4121C8.40511 19.5049 8.00969 19.61 7.61426 19.7192C8.13363 21.6585 9.88058 23.1568 11.3049 24.3893C13.0951 25.9391 15.3241 26.3451 17.6022 26.2235C21.2378 26.0277 24.4228 23.1609 25.3337 19.5069C25.0524 19.4121 24.771 19.3173 24.4897 19.2266C23.5788 18.934 23.9723 17.4377 24.8871 17.7304C25.9691 18.0787 27.0393 18.4662 28.0977 18.8948C28.9791 19.2514 28.5895 20.7497 27.7003 20.389Z" fill="#FF9EBA"/>
</svg>
