<svg width="24" height="24" viewBox="0 0 24 24" fill="none" xmlns="http://www.w3.org/2000/svg">
<path d="M0 12C0 5.37258 5.37258 0 12 0C18.6274 0 24 5.37258 24 12C24 18.6274 18.6274 24 12 24C5.37258 24 0 18.6274 0 12Z" fill="#E20916"/>
<path d="M12 8.625C12 7.95749 12.1979 7.30497 12.5688 6.74995C12.9396 6.19494 13.4667 5.76235 14.0834 5.50691C14.7001 5.25146 15.3787 5.18463 16.0334 5.31485C16.6881 5.44508 17.2895 5.76651 17.7615 6.23852C18.2335 6.71052 18.5549 7.31189 18.6852 7.96657C18.8154 8.62126 18.7485 9.29986 18.4931 9.91656C18.2376 10.5333 17.8051 11.0604 17.2501 11.4312C16.695 11.8021 16.0425 12 15.375 12M12 8.625C12 7.95749 11.8021 7.30497 11.4312 6.74995C11.0604 6.19494 10.5333 5.76235 9.91656 5.50691C9.29986 5.25146 8.62126 5.18463 7.96657 5.31485C7.31189 5.44508 6.71052 5.76651 6.23852 6.23852C5.76651 6.71052 5.44508 7.31189 5.31485 7.96657C5.18463 8.62126 5.25146 9.29986 5.50691 9.91656C5.76235 10.5333 6.19494 11.0604 6.74995 11.4312C7.30497 11.8021 7.95749 12 8.625 12M12 8.625V9.75M15.375 12C16.0425 12 16.695 12.1979 17.2501 12.5688C17.8051 12.9396 18.2376 13.4667 18.4931 14.0834C18.7485 14.7001 18.8154 15.3787 18.6852 16.0334C18.5549 16.6881 18.2335 17.2895 17.7615 17.7615C17.2895 18.2335 16.6881 18.5549 16.0334 18.6852C15.3787 18.8154 14.7001 18.7485 14.0834 18.4931C13.4667 18.2376 12.9396 17.8051 12.5688 17.2501C12.1979 16.695 12 16.0425 12 15.375M15.375 12H14.25M8.625 12C7.95749 12 7.30497 12.1979 6.74995 12.5688C6.19494 12.9396 5.76235 13.4667 5.50691 14.0834C5.25146 14.7001 5.18463 15.3787 5.31485 16.0334C5.44508 16.6881 5.76651 17.2895 6.23852 17.7615C6.71052 18.2335 7.31189 18.5549 7.96657 18.6852C8.62126 18.8154 9.29986 18.7485 9.91656 18.4931C10.5333 18.2376 11.0604 17.8051 11.4312 17.2501C11.8021 16.695 12 16.0425 12 15.375M8.625 12H9.75M12 9.75C10.7574 9.75 9.75 10.7574 9.75 12M12 9.75C13.2426 9.75 14.25 10.7574 14.25 12M12 15.375V14.25M9.75 12C9.75 13.2426 10.7574 14.25 12 14.25M14.25 12C14.25 13.2426 13.2426 14.25 12 14.25M9 15L10.125 13.875M13.875 10.125L15 9M9 9L10.125 10.125M13.875 13.875L15 15" stroke="white" stroke-width="2" stroke-linecap="round" stroke-linejoin="round"/>
</svg>
