<svg width="24" height="24" viewBox="0 0 24 24" fill="none" xmlns="http://www.w3.org/2000/svg">
<path d="M0 12C0 5.37258 5.37258 0 12 0C18.6274 0 24 5.37258 24 12C24 18.6274 18.6274 24 12 24C5.37258 24 0 18.6274 0 12Z" fill="#E20916"/>
<path d="M9 19.5H15M8.25 10.5H15.75M8.25 10.5C8.25 9 8.625 7.5 9.75 4.5H14.25C15.375 7.5 15.75 9 15.75 10.5M8.25 10.5C8.25 11.4946 8.64509 12.4484 9.34835 13.1517C10.0516 13.8549 11.0054 14.25 12 14.25M15.75 10.5C15.75 11.4946 15.3549 12.4484 14.6517 13.1517C13.9484 13.8549 12.9946 14.25 12 14.25M12 14.25V19.5" stroke="white" stroke-width="2" stroke-linecap="round" stroke-linejoin="round"/>
</svg>
