<svg width="24" height="24" viewBox="0 0 24 24" fill="none" xmlns="http://www.w3.org/2000/svg">
<path d="M0 12C0 5.37258 5.37258 0 12 0C18.6274 0 24 5.37258 24 12C24 18.6274 18.6274 24 12 24C5.37258 24 0 18.6274 0 12Z" fill="#E20916"/>
<path d="M15.4689 8.52734C16.179 8.65504 16.7615 9.03785 17.2167 9.67578C17.6173 10.241 17.8905 10.9519 18.0359 11.8086C18.1636 12.5925 18.1541 13.3762 18.0086 14.1602C17.7901 15.4543 17.3532 16.5391 16.6977 17.4141C15.9146 18.4714 14.9316 19 13.7482 19C13.4567 19 13.1384 18.9089 12.7922 18.7266C12.5554 18.5808 12.2916 18.5078 12.0001 18.5078C11.7086 18.5078 11.445 18.5808 11.2079 18.7266C10.8618 18.9089 10.5435 19 10.252 19C9.06857 19 8.08556 18.4714 7.30244 17.4141C6.64701 16.5391 6.21005 15.4543 5.99158 14.1602C5.84611 13.3762 5.83654 12.5925 5.96423 11.8086C6.1097 10.9519 6.38287 10.241 6.78345 9.67578C7.23872 9.03785 7.82115 8.65504 8.53126 8.52734C8.96822 8.45434 9.56896 8.51832 10.3338 8.71875C10.9892 8.90113 11.5445 9.11988 11.9998 9.375C12.4551 9.11988 13.0104 8.90113 13.6659 8.71875C14.431 8.51832 15.032 8.45434 15.4689 8.52734ZM13.9667 7.40625C13.7118 7.64332 13.3747 7.81641 12.956 7.92578C12.6645 8.01684 12.3463 8.0625 12.0001 8.0625L11.5905 8.03516C11.5541 7.78004 11.5541 7.48828 11.5905 7.16016C11.6635 6.50391 11.8727 6.0027 12.2186 5.65625C12.4734 5.41918 12.8106 5.24609 13.2292 5.13672C13.5207 5.04566 13.839 5 14.1851 5L14.5947 5.02734L14.6221 5.4375C14.6221 5.78395 14.5764 6.10277 14.4856 6.39453C14.3765 6.81371 14.2037 7.15113 13.9667 7.40625Z" fill="white"/>
</svg>
